<svg width="1280" height="640" viewBox="0 0 1280 640" fill="none" xmlns="http://www.w3.org/2000/svg" role="img" aria-labelledby="title desc">
  <title id="title">VoiceCoach Offline v0.4 Coach Mode preview</title>
  <desc id="desc">A product preview showing Coach Mode scorecards, volume trend bars, and local offline speaking practice.</desc>
  <rect width="1280" height="640" rx="28" fill="#F7F8FB"/>
  <rect x="28" y="28" width="260" height="584" rx="18" fill="#101828"/>
  <rect x="52" y="58" width="54" height="54" rx="12" fill="#2DD4BF"/>
  <path d="M65 86c5 0 5-17 10-17s5 29 10 29 5-22 10-22 5 12 10 12" stroke="#042F2E" stroke-width="5" stroke-linecap="round" stroke-linejoin="round"/>
  <text x="122" y="78" fill="#F8FAFC" font-family="Segoe UI, Arial, sans-serif" font-size="22" font-weight="700">VoiceCoach</text>
  <text x="122" y="105" fill="#CBD5E1" font-family="Segoe UI, Arial, sans-serif" font-size="16">Offline v0.4.0</text>
  <rect x="52" y="150" width="208" height="48" rx="10" fill="#1F2937"/>
  <text x="96" y="181" fill="#F8FAFC" font-family="Segoe UI, Arial, sans-serif" font-size="18">Coach</text>
  <text x="96" y="242" fill="#CBD5E1" font-family="Segoe UI, Arial, sans-serif" font-size="18">Practice</text>
  <text x="96" y="303" fill="#CBD5E1" font-family="Segoe UI, Arial, sans-serif" font-size="18">Review</text>
  <text x="96" y="364" fill="#CBD5E1" font-family="Segoe UI, Arial, sans-serif" font-size="18">Settings</text>
  <text x="330" y="86" fill="#111827" font-family="Segoe UI, Arial, sans-serif" font-size="42" font-weight="800">Coach Mode</text>
  <text x="330" y="124" fill="#64748B" font-family="Segoe UI, Arial, sans-serif" font-size="20">Offline scorecards for projection, clarity, pacing, and consistency.</text>
  <g>
    <rect x="330" y="166" width="174" height="96" rx="12" fill="#F0FDFA" stroke="#14B8A6" stroke-width="2"/>
    <text x="350" y="200" fill="#0F766E" font-family="Segoe UI, Arial, sans-serif" font-size="18" font-weight="700">Voice Projection</text>
    <text x="350" y="228" fill="#475569" font-family="Segoe UI, Arial, sans-serif" font-size="15">Target volume</text>
    <text x="350" y="248" fill="#475569" font-family="Segoe UI, Arial, sans-serif" font-size="15">and steadiness</text>
    <rect x="522" y="166" width="174" height="96" rx="12" fill="#FFFFFF" stroke="#DBE3EE"/>
    <text x="542" y="200" fill="#111827" font-family="Segoe UI, Arial, sans-serif" font-size="18" font-weight="700">Clear Speaking</text>
    <text x="542" y="228" fill="#64748B" font-family="Segoe UI, Arial, sans-serif" font-size="15">Filler and sentence</text>
    <text x="542" y="248" fill="#64748B" font-family="Segoe UI, Arial, sans-serif" font-size="15">checks</text>
    <rect x="714" y="166" width="174" height="96" rx="12" fill="#FFFFFF" stroke="#DBE3EE"/>
    <text x="734" y="200" fill="#111827" font-family="Segoe UI, Arial, sans-serif" font-size="18" font-weight="700">Pacing</text>
    <text x="734" y="228" fill="#64748B" font-family="Segoe UI, Arial, sans-serif" font-size="15">Pause control</text>
    <text x="734" y="248" fill="#64748B" font-family="Segoe UI, Arial, sans-serif" font-size="15">and rhythm</text>
    <rect x="906" y="166" width="174" height="96" rx="12" fill="#FFFFFF" stroke="#DBE3EE"/>
    <text x="926" y="200" fill="#111827" font-family="Segoe UI, Arial, sans-serif" font-size="18" font-weight="700">Interview</text>
    <text x="926" y="228" fill="#64748B" font-family="Segoe UI, Arial, sans-serif" font-size="15">Structured answer</text>
    <text x="926" y="248" fill="#64748B" font-family="Segoe UI, Arial, sans-serif" font-size="15">practice</text>
  </g>
  <rect x="330" y="304" width="410" height="236" rx="14" fill="#FFFFFF" stroke="#E5E7EB"/>
  <text x="358" y="345" fill="#111827" font-family="Segoe UI, Arial, sans-serif" font-size="22" font-weight="800">Latest Coach Summary</text>
  <text x="358" y="425" fill="#0F766E" font-family="Segoe UI, Arial, sans-serif" font-size="76" font-weight="800">84</text>
  <text x="448" y="425" fill="#64748B" font-family="Segoe UI, Arial, sans-serif" font-size="28">/100</text>
  <text x="358" y="468" fill="#475569" font-family="Segoe UI, Arial, sans-serif" font-size="18">Projection is close to release-ready.</text>
  <rect x="358" y="494" width="330" height="12" rx="6" fill="#E2E8F0"/>
  <rect x="358" y="494" width="278" height="12" rx="6" fill="#14B8A6"/>
  <rect x="358" y="518" width="330" height="12" rx="6" fill="#E2E8F0"/>
  <rect x="358" y="518" width="250" height="12" rx="6" fill="#2563EB"/>
  <rect x="782" y="304" width="378" height="236" rx="14" fill="#FFFFFF" stroke="#E5E7EB"/>
  <text x="810" y="345" fill="#111827" font-family="Segoe UI, Arial, sans-serif" font-size="22" font-weight="800">Progress</text>
  <g fill="#14B8A6">
    <rect x="814" y="478" width="18" height="34" rx="4"/>
    <rect x="846" y="438" width="18" height="74" rx="4"/>
    <rect x="878" y="456" width="18" height="56" rx="4"/>
    <rect x="910" y="404" width="18" height="108" rx="4"/>
    <rect x="942" y="382" width="18" height="130" rx="4"/>
    <rect x="974" y="420" width="18" height="92" rx="4"/>
    <rect x="1006" y="366" width="18" height="146" rx="4"/>
    <rect x="1038" y="348" width="18" height="164" rx="4"/>
    <rect x="1070" y="388" width="18" height="124" rx="4"/>
    <rect x="1102" y="330" width="18" height="182" rx="4"/>
  </g>
  <text x="810" y="382" fill="#64748B" font-family="Segoe UI, Arial, sans-serif" font-size="18">Local reports. Local files. No cloud required.</text>
</svg>
